<svg xmlns="http://www.w3.org/2000/svg" viewBox="0 0 179 65" width="179" height="65">
    <g transform="translate(0 10)"><path fill="#27475c" d="M-0.03 34.4L-0.12 34.83 0.31 34.34 0.74 33.87 1.17 33.4 1.61 32.93 2.05 32.46 2.49 32.01 2.94 31.55 3.39 31.1 3.84 30.66 4.3 30.22 4.76 29.79 5.23 29.37 5.7 28.95 6.18 28.54 6.66 28.13 7.15 27.73 7.64 27.34 8.15 26.96 8.66 26.59 9.18 26.23 9.71 25.88 10.26 25.55 10.82 25.24 11.4 24.95 11.99 24.67 12.59 24.42 13.21 24.2 13.84 23.99 14.49 23.82 15.15 23.67 15.83 23.56 16.52 23.48 17.21 23.43 17.92 23.42 18.63 23.45 19.34 23.52 20.06 23.63 20.77 23.78 21.48 23.97 21.74 24.04 22.03 24.1 22.35 24.16 22.69 24.2 23.05 24.23 23.44 24.25 23.84 24.26 24.26 24.24 24.69 24.22 25.14 24.18 25.59 24.12 26.06 24.04 26.53 23.95 27.01 23.84 27.49 23.72 27.98 23.58 28.46 23.42 28.95 23.25 29.43 23.07 29.91 22.86 30.38 22.65 30.84 22.42 31.3 22.17 31.75 21.91 32.18 21.65 32.6 21.36 33.01 21.07 33.41 20.77 33.79 20.45 34.15 20.13 34.5 19.8 34.82 19.46 35.13 19.12 35.42 18.77 35.69 18.41 35.94 18.05 36.17 17.68 36.38 17.31 36.57 16.93 36.74 16.54 37.12 15.62 46.64 19.53 46.26 20.46 45.89 21.31 45.48 22.13 45.03 22.92 44.56 23.69 44.05 24.43 43.51 25.14 42.95 25.82 42.37 26.48 41.76 27.11 41.13 27.71 40.48 28.28 39.82 28.83 39.14 29.35 38.45 29.84 37.74 30.31 37.03 30.76 36.3 31.18 35.56 31.57 34.81 31.94 34.06 32.29 33.3 32.61 32.53 32.91 31.76 33.18 30.98 33.43 30.2 33.66 29.42 33.86 28.64 34.03 27.85 34.19 27.06 34.31 26.28 34.41 25.49 34.49 24.71 34.54 23.92 34.56 23.14 34.55 22.36 34.51 21.59 34.44 20.81 34.34 20.04 34.21 19.28 34.04 18.52 33.83 18.37 33.79 18.22 33.76 18.07 33.74 17.93 33.72 17.78 33.72 17.63 33.72 17.47 33.73 17.31 33.75 17.13 33.78 16.95 33.82 16.76 33.87 16.56 33.94 16.35 34.01 16.13 34.11 15.9 34.21 15.66 34.33 15.42 34.47 15.17 34.62 14.91 34.78 14.65 34.97 14.39 35.16 14.12 35.38 13.86 35.62 13.6 35.87 13.35 36.15 13.1 36.43 12.86 36.74 12.62 37.06 12.39 37.39 12.17 37.73 11.96 38.09 11.76 38.46 11.56 38.84 11.38 39.23 11.21 39.62 11.05 40.02 10.91 40.43 10.77 40.85 10.65 41.27 8.8 44.72ZM30.86 14.13L48.72 0.93 52.14 22.87Z"/></g>
    <path fill="#38627d" stroke="#38627d" stroke-width="0.4" stroke-linejoin="round" d="M59.2 29.5 68.09 7.5H73.59L82.54 29.5H76.25L74.86 25.39H66.86L65.47 29.5ZM68.26 21.3H73.46L70.85 13.63ZM98.79 25.42V29.5H82.8V7.5H88.64V25.42ZM98.53 11.59V7.5H118.75V11.59H111.47V29.5H105.64V11.59ZM119.73 29.5V7.5H136.44V11.59H125.57V16.23H134.73V20.18H125.57V25.42H136.39V29.5ZM150.53 29.5 146.26 21.73H143.12V29.5H137.28V7.5H146.81Q151 7.5 153.48 9.2Q155.97 10.9 155.97 14.15Q155.97 16.69 154.81 18.14Q153.66 19.59 151.75 20.4L156.78 29.27V29.5ZM143.12 11.59V17.64H146.81Q150.13 17.64 150.13 14.63Q150.13 11.64 146.91 11.59Z"/>
    <path fill="#27475c" stroke="#27475c" stroke-width="0.5" stroke-linejoin="round" d="M59.2 39.59V35.5H79.43V39.59H72.15V57.5H66.31V39.59ZM93.66 57.5 89.38 49.73H86.24V57.5H80.41V35.5H89.93Q94.12 35.5 96.61 37.2Q99.09 38.9 99.09 42.15Q99.09 44.69 97.93 46.14Q96.78 47.59 94.87 48.4L99.9 57.27V57.5ZM86.24 39.59V45.64H89.93Q93.26 45.64 93.26 42.63Q93.26 39.64 90.03 39.59ZM99.21 57.5 108.1 35.5H113.6L122.54 57.5H116.26L114.86 53.39H106.87L105.47 57.5ZM108.26 49.3H113.47L110.86 41.63ZM143.53 35.5 135.37 57.5H129.01L120.9 35.5H127.4L132.2 51.55L137 35.5ZM143.82 57.5V35.5H160.52V39.59H149.65V44.23H158.81V48.18H149.65V53.42H160.47V57.5ZM177.36 53.42V57.5H161.37V35.5H167.2V53.42Z"/>
</svg>
